<?xml version="1.0" encoding="UTF-8" standalone="no"?>
<!-- Created with Inkscape (http://www.inkscape.org/) -->

<svg
   xmlns:dc="http://purl.org/dc/elements/1.1/"
   xmlns:cc="http://creativecommons.org/ns#"
   xmlns:rdf="http://www.w3.org/1999/02/22-rdf-syntax-ns#"
   xmlns:svg="http://www.w3.org/2000/svg"
   xmlns="http://www.w3.org/2000/svg"
   version="1.1"
   width="900"
   height="329.10605"
   id="svg2"
   xml:space="preserve"><metadata
     id="metadata8"><rdf:RDF><cc:Work
         rdf:about=""><dc:format>image/svg+xml</dc:format><dc:type
           rdf:resource="http://purl.org/dc/dcmitype/StillImage" /><dc:title></dc:title></cc:Work></rdf:RDF></metadata><defs
     id="defs6"><clipPath
       id="clipPath16"><path
         d="m 0,0 595.276,0 0,841.89 L 0,841.89 0,0 z"
         id="path18" /></clipPath><clipPath
       id="clipPath24"><path
         d="m 7.50391,834.386 578.00009,0 0,-274.599 -578.00009,0 0,274.599 z"
         id="path26" /></clipPath><clipPath
       id="clipPath28"><path
         d="m 268.889,560.787 315.615,0 0,88.615 -315.615,0 0,-88.615 z"
         id="path30" /></clipPath><clipPath
       id="clipPath32"><path
         d="m 10.961,560.787 573.543,0 0,272.598 -573.543,0 0,-272.598 z"
         id="path34" /></clipPath><clipPath
       id="clipPath36"><path
         d="m 603.361,336.453 -334.472,0 0,94.674 334.472,0 0,-94.674 z"
         id="path38" /></clipPath><clipPath
       id="clipPath40"><path
         d="m 10.961,560.787 256.939,0 0,88.615 -256.939,0 0,-88.615 z"
         id="path42" /></clipPath><clipPath
       id="clipPath44"><path
         d="m 10.961,560.787 573.543,0 0,272.598 -573.543,0 0,-272.598 z"
         id="path46" /></clipPath><clipPath
       id="clipPath48"><path
         d="m 267.867,432.659 -5.596,0 0,5.656 5.596,0 0,-5.656 z"
         id="path50" /></clipPath><clipPath
       id="clipPath52"><path
         d="m 267.867,437.591 -5.596,0 0,6.629 5.596,0 0,-6.629 z"
         id="path54" /></clipPath><clipPath
       id="clipPath56"><path
         d="m 267.867,443.452 -5.596,0 0,6.628 5.596,0 0,-6.628 z"
         id="path58" /></clipPath><clipPath
       id="clipPath60"><path
         d="m 267.867,449.353 -5.596,0 0,6.629 5.596,0 0,-6.629 z"
         id="path62" /></clipPath><clipPath
       id="clipPath64"><path
         d="m 267.867,455.243 -5.596,0 0,6.626 5.596,0 0,-6.626 z"
         id="path66" /></clipPath><clipPath
       id="clipPath68"><path
         d="m 267.867,461.146 -5.596,0 0,6.629 5.596,0 0,-6.629 z"
         id="path70" /></clipPath><clipPath
       id="clipPath72"><path
         d="m 267.867,467.008 -5.596,0 0,6.627 5.596,0 0,-6.627 z"
         id="path74" /></clipPath><clipPath
       id="clipPath76"><path
         d="m 267.867,472.91 -5.596,0 0,6.627 5.596,0 0,-6.627 z"
         id="path78" /></clipPath><clipPath
       id="clipPath80"><path
         d="m 267.867,478.797 -5.596,0 0,6.627 5.596,0 0,-6.627 z"
         id="path82" /></clipPath><clipPath
       id="clipPath84"><path
         d="m 267.867,484.699 -5.596,0 0,6.627 5.596,0 0,-6.627 z"
         id="path86" /></clipPath><clipPath
       id="clipPath88"><path
         d="m 267.867,490.56 -5.596,0 0,6.63 5.596,0 0,-6.63 z"
         id="path90" /></clipPath><clipPath
       id="clipPath92"><path
         d="m 267.867,496.463 -5.596,0 0,6.627 5.596,0 0,-6.627 z"
         id="path94" /></clipPath><clipPath
       id="clipPath96"><path
         d="m 267.867,502.349 -5.596,0 0,6.629 5.596,0 0,-6.629 z"
         id="path98" /></clipPath><clipPath
       id="clipPath100"><path
         d="m 267.867,508.241 -5.596,0 0,6.626 5.596,0 0,-6.626 z"
         id="path102" /></clipPath><clipPath
       id="clipPath104"><path
         d="m 267.867,514.143 -5.596,0 0,6.625 5.596,0 0,-6.625 z"
         id="path106" /></clipPath><clipPath
       id="clipPath108"><path
         d="m 267.867,520.005 -5.596,0 0,6.628 5.596,0 0,-6.628 z"
         id="path110" /></clipPath><clipPath
       id="clipPath112"><path
         d="m 267.867,525.907 -5.596,0 0,6.627 5.596,0 0,-6.627 z"
         id="path114" /></clipPath><clipPath
       id="clipPath116"><path
         d="m 267.867,531.848 -5.596,0 0,6.625 5.596,0 0,-6.625 z"
         id="path118" /></clipPath><clipPath
       id="clipPath120"><path
         d="m 267.867,537.75 -5.596,0 0,6.629 5.596,0 0,-6.629 z"
         id="path122" /></clipPath><clipPath
       id="clipPath124"><path
         d="m 267.867,543.611 -5.596,0 0,6.626 5.596,0 0,-6.626 z"
         id="path126" /></clipPath><clipPath
       id="clipPath128"><path
         d="m 267.867,549.512 -5.596,0 0,6.627 5.596,0 0,-6.627 z"
         id="path130" /></clipPath><clipPath
       id="clipPath132"><path
         d="m 262.271,560.787 5.596,0 0,1.239 -5.596,0 0,-1.239 z"
         id="path134" /></clipPath><clipPath
       id="clipPath136"><path
         d="m 262.271,561.305 5.596,0 0,6.628 -5.596,0 0,-6.628 z"
         id="path138" /></clipPath><clipPath
       id="clipPath140"><path
         d="m 262.271,567.165 5.596,0 0,6.628 -5.596,0 0,-6.628 z"
         id="path142" /></clipPath><clipPath
       id="clipPath144"><path
         d="m 262.271,573.068 5.596,0 0,6.628 -5.596,0 0,-6.628 z"
         id="path146" /></clipPath><clipPath
       id="clipPath148"><path
         d="m 262.271,578.956 5.596,0 0,6.628 -5.596,0 0,-6.628 z"
         id="path150" /></clipPath><clipPath
       id="clipPath152"><path
         d="m 262.271,584.86 5.596,0 0,6.627 -5.596,0 0,-6.627 z"
         id="path154" /></clipPath><clipPath
       id="clipPath156"><path
         d="m 262.271,590.722 5.596,0 0,6.628 -5.596,0 0,-6.628 z"
         id="path158" /></clipPath><clipPath
       id="clipPath160"><path
         d="m 262.271,596.623 5.596,0 0,6.627 -5.596,0 0,-6.627 z"
         id="path162" /></clipPath><clipPath
       id="clipPath164"><path
         d="m 262.271,602.511 5.596,0 0,6.629 -5.596,0 0,-6.629 z"
         id="path166" /></clipPath><clipPath
       id="clipPath168"><path
         d="m 262.271,608.403 5.596,0 0,6.628 -5.596,0 0,-6.628 z"
         id="path170" /></clipPath><clipPath
       id="clipPath172"><path
         d="m 262.271,614.306 5.596,0 0,6.627 -5.596,0 0,-6.627 z"
         id="path174" /></clipPath><clipPath
       id="clipPath176"><path
         d="m 262.271,620.168 5.596,0 0,6.628 -5.596,0 0,-6.628 z"
         id="path178" /></clipPath><clipPath
       id="clipPath180"><path
         d="m 262.271,626.07 5.596,0 0,6.628 -5.596,0 0,-6.628 z"
         id="path182" /></clipPath><clipPath
       id="clipPath184"><path
         d="m 262.271,632.011 5.596,0 0,6.626 -5.596,0 0,-6.626 z"
         id="path186" /></clipPath><clipPath
       id="clipPath188"><path
         d="m 262.271,637.914 5.596,0 0,6.628 -5.596,0 0,-6.628 z"
         id="path190" /></clipPath><clipPath
       id="clipPath192"><path
         d="m 262.271,643.775 5.596,0 0,5.627 -5.596,0 0,-5.627 z"
         id="path194" /></clipPath><clipPath
       id="clipPath196"><path
         d="m 10.961,560.787 573.543,0 0,272.598 -573.543,0 0,-272.598 z"
         id="path198" /></clipPath><clipPath
       id="clipPath200"><path
         d="m 267.9,336.453 -256.939,0 0,94.674 256.939,0 0,-94.674 z"
         id="path202" /></clipPath><clipPath
       id="clipPath204"><path
         d="m 267.867,336.453 -5.596,0 0,1.42 5.596,0 0,-1.42 z"
         id="path206" /></clipPath><clipPath
       id="clipPath208"><path
         d="m 267.867,337.134 -5.596,0 0,6.625 5.596,0 0,-6.625 z"
         id="path210" /></clipPath><clipPath
       id="clipPath212"><path
         d="m 267.867,343.037 -5.596,0 0,6.627 5.596,0 0,-6.627 z"
         id="path214" /></clipPath><clipPath
       id="clipPath216"><path
         d="m 267.867,348.896 -5.596,0 0,6.627 5.596,0 0,-6.627 z"
         id="path218" /></clipPath><clipPath
       id="clipPath220"><path
         d="m 267.867,354.8 -5.596,0 0,6.628 5.596,0 0,-6.628 z"
         id="path222" /></clipPath><clipPath
       id="clipPath224"><path
         d="m 267.867,360.687 -5.596,0 0,6.627 5.596,0 0,-6.627 z"
         id="path226" /></clipPath><clipPath
       id="clipPath228"><path
         d="m 267.867,366.59 -5.596,0 0,6.629 5.596,0 0,-6.629 z"
         id="path230" /></clipPath><clipPath
       id="clipPath232"><path
         d="m 267.867,372.451 -5.596,0 0,6.627 5.596,0 0,-6.627 z"
         id="path234" /></clipPath><clipPath
       id="clipPath236"><path
         d="m 267.867,378.353 -5.596,0 0,6.627 5.596,0 0,-6.627 z"
         id="path238" /></clipPath><clipPath
       id="clipPath240"><path
         d="m 267.867,384.24 -5.596,0 0,6.628 5.596,0 0,-6.628 z"
         id="path242" /></clipPath><clipPath
       id="clipPath244"><path
         d="m 267.867,390.131 -5.596,0 0,6.625 5.596,0 0,-6.625 z"
         id="path246" /></clipPath><clipPath
       id="clipPath248"><path
         d="m 267.867,396.031 -5.596,0 0,6.627 5.596,0 0,-6.627 z"
         id="path250" /></clipPath><clipPath
       id="clipPath252"><path
         d="m 267.867,401.895 -5.596,0 0,6.627 5.596,0 0,-6.627 z"
         id="path254" /></clipPath><clipPath
       id="clipPath256"><path
         d="m 267.867,407.795 -5.596,0 0,6.629 5.596,0 0,-6.629 z"
         id="path258" /></clipPath><clipPath
       id="clipPath260"><path
         d="m 267.867,413.736 -5.596,0 0,6.625 5.596,0 0,-6.625 z"
         id="path262" /></clipPath><clipPath
       id="clipPath264"><path
         d="m 267.867,419.638 -5.596,0 0,6.629 5.596,0 0,-6.629 z"
         id="path266" /></clipPath><clipPath
       id="clipPath268"><path
         d="m 267.867,425.5 -5.596,0 0,5.627 5.596,0 0,-5.627 z"
         id="path270" /></clipPath><clipPath
       id="clipPath272"><path
         d="m 269.019,726.262 315.485,0 0,107.123 -315.485,0 0,-107.123 z"
         id="path274" /></clipPath><clipPath
       id="clipPath276"><path
         d="m 269.019,650.134 315.485,0 0,76.128 -315.485,0 0,-76.128 z"
         id="path278" /></clipPath><clipPath
       id="clipPath280"><path
         d="m 11.092,726.262 256.938,0 0,107.123 -256.938,0 0,-107.123 z"
         id="path282" /></clipPath><clipPath
       id="clipPath284"><path
         d="m 262.403,727.795 5.594,0 0,5.656 -5.594,0 0,-5.656 z"
         id="path286" /></clipPath><clipPath
       id="clipPath288"><path
         d="m 262.403,732.729 5.594,0 0,6.628 -5.594,0 0,-6.628 z"
         id="path290" /></clipPath><clipPath
       id="clipPath292"><path
         d="m 262.403,738.588 5.594,0 0,6.628 -5.594,0 0,-6.628 z"
         id="path294" /></clipPath><clipPath
       id="clipPath296"><path
         d="m 262.403,744.491 5.594,0 0,6.628 -5.594,0 0,-6.628 z"
         id="path298" /></clipPath><clipPath
       id="clipPath300"><path
         d="m 262.403,750.379 5.594,0 0,6.627 -5.594,0 0,-6.627 z"
         id="path302" /></clipPath><clipPath
       id="clipPath304"><path
         d="m 262.403,756.283 5.594,0 0,6.628 -5.594,0 0,-6.628 z"
         id="path306" /></clipPath><clipPath
       id="clipPath308"><path
         d="m 262.403,762.144 5.594,0 0,6.628 -5.594,0 0,-6.628 z"
         id="path310" /></clipPath><clipPath
       id="clipPath312"><path
         d="m 262.403,768.046 5.594,0 0,6.628 -5.594,0 0,-6.628 z"
         id="path314" /></clipPath><clipPath
       id="clipPath316"><path
         d="m 262.403,773.932 5.594,0 0,6.628 -5.594,0 0,-6.628 z"
         id="path318" /></clipPath><clipPath
       id="clipPath320"><path
         d="m 262.403,779.835 5.594,0 0,6.628 -5.594,0 0,-6.628 z"
         id="path322" /></clipPath><clipPath
       id="clipPath324"><path
         d="m 262.403,785.697 5.594,0 0,6.629 -5.594,0 0,-6.629 z"
         id="path326" /></clipPath><clipPath
       id="clipPath328"><path
         d="m 262.403,791.599 5.594,0 0,6.627 -5.594,0 0,-6.627 z"
         id="path330" /></clipPath><clipPath
       id="clipPath332"><path
         d="m 262.403,797.486 5.594,0 0,6.628 -5.594,0 0,-6.628 z"
         id="path334" /></clipPath><clipPath
       id="clipPath336"><path
         d="m 262.403,803.377 5.594,0 0,6.626 -5.594,0 0,-6.626 z"
         id="path338" /></clipPath><clipPath
       id="clipPath340"><path
         d="m 262.403,809.278 5.594,0 0,6.627 -5.594,0 0,-6.627 z"
         id="path342" /></clipPath><clipPath
       id="clipPath344"><path
         d="m 262.403,815.141 5.594,0 0,6.627 -5.594,0 0,-6.627 z"
         id="path346" /></clipPath><clipPath
       id="clipPath348"><path
         d="m 262.403,821.044 5.594,0 0,6.627 -5.594,0 0,-6.627 z"
         id="path350" /></clipPath><clipPath
       id="clipPath352"><path
         d="m 262.403,826.984 5.594,0 0,6.402 -5.594,0 0,-6.402 z"
         id="path354" /></clipPath><clipPath
       id="clipPath356"><path
         d="m 262.403,832.885 5.594,0 0,0.5 -5.594,0 0,-0.5 z"
         id="path358" /></clipPath><clipPath
       id="clipPath360"><path
         d="m 10.961,560.787 573.543,0 0,272.598 -573.543,0 0,-272.598 z"
         id="path362" /></clipPath><clipPath
       id="clipPath364"><path
         d="m 267.998,838.747 -5.595,0 0,6.626 5.595,0 0,-6.626 z"
         id="path366" /></clipPath><clipPath
       id="clipPath368"><path
         d="m 267.998,844.649 -5.595,0 0,6.628 5.595,0 0,-6.628 z"
         id="path370" /></clipPath><clipPath
       id="clipPath372"><path
         d="m 267.998,850.538 -5.595,0 0,6.625 5.595,0 0,-6.625 z"
         id="path374" /></clipPath><clipPath
       id="clipPath376"><path
         d="m 267.998,856.441 -5.595,0 0,6.628 5.595,0 0,-6.628 z"
         id="path378" /></clipPath><clipPath
       id="clipPath380"><path
         d="m 267.998,862.301 -5.595,0 0,6.627 5.595,0 0,-6.627 z"
         id="path382" /></clipPath><clipPath
       id="clipPath384"><path
         d="m 267.998,868.204 -5.595,0 0,6.627 5.595,0 0,-6.627 z"
         id="path386" /></clipPath><clipPath
       id="clipPath388"><path
         d="m 267.998,874.091 -5.595,0 0,6.627 5.595,0 0,-6.627 z"
         id="path390" /></clipPath><clipPath
       id="clipPath392"><path
         d="m 267.998,879.995 -5.595,0 0,6.628 5.595,0 0,-6.628 z"
         id="path394" /></clipPath><clipPath
       id="clipPath396"><path
         d="m 267.998,885.856 -5.595,0 0,6.627 5.595,0 0,-6.627 z"
         id="path398" /></clipPath><clipPath
       id="clipPath400"><path
         d="m 267.998,891.758 -5.595,0 0,6.627 5.595,0 0,-6.627 z"
         id="path402" /></clipPath><clipPath
       id="clipPath404"><path
         d="m 267.998,897.644 -5.595,0 0,6.628 5.595,0 0,-6.628 z"
         id="path406" /></clipPath><clipPath
       id="clipPath408"><path
         d="m 267.998,903.536 -5.595,0 0,6.625 5.595,0 0,-6.625 z"
         id="path410" /></clipPath><clipPath
       id="clipPath412"><path
         d="m 267.998,909.435 -5.595,0 0,6.627 5.595,0 0,-6.627 z"
         id="path414" /></clipPath><clipPath
       id="clipPath416"><path
         d="m 267.998,915.298 -5.595,0 0,6.628 5.595,0 0,-6.628 z"
         id="path418" /></clipPath><clipPath
       id="clipPath420"><path
         d="m 267.998,921.199 -5.595,0 0,6.629 5.595,0 0,-6.629 z"
         id="path422" /></clipPath><clipPath
       id="clipPath424"><path
         d="m 267.998,927.14 -5.595,0 0,4.589 5.595,0 0,-4.589 z"
         id="path426" /></clipPath><clipPath
       id="clipPath428"><path
         d="m 11.092,650.134 256.938,0 0,76.128 -256.938,0 0,-76.128 z"
         id="path430" /></clipPath><clipPath
       id="clipPath432"><path
         d="m 267.998,515.176 -5.596,0 0,-5.656 5.596,0 0,5.656 z"
         id="path434" /></clipPath><clipPath
       id="clipPath436"><path
         d="m 267.998,521.082 -5.596,0 0,-6.629 5.596,0 0,6.629 z"
         id="path438" /></clipPath><clipPath
       id="clipPath440"><path
         d="m 267.998,526.941 -5.596,0 0,-6.627 5.596,0 0,6.627 z"
         id="path442" /></clipPath><clipPath
       id="clipPath444"><path
         d="m 267.998,532.842 -5.596,0 0,-6.627 5.596,0 0,6.627 z"
         id="path446" /></clipPath><clipPath
       id="clipPath448"><path
         d="m 267.998,538.73 -5.596,0 0,-6.625 5.596,0 0,6.625 z"
         id="path450" /></clipPath><clipPath
       id="clipPath452"><path
         d="m 267.998,544.635 -5.596,0 0,-6.627 5.596,0 0,6.627 z"
         id="path454" /></clipPath><clipPath
       id="clipPath456"><path
         d="m 267.998,550.496 -5.596,0 0,-6.627 5.596,0 0,6.627 z"
         id="path458" /></clipPath><clipPath
       id="clipPath460"><path
         d="m 267.998,556.398 -5.596,0 0,-6.627 5.596,0 0,6.627 z"
         id="path462" /></clipPath><clipPath
       id="clipPath464"><path
         d="m 267.998,562.285 -5.596,0 0,-6.627 5.596,0 0,6.627 z"
         id="path466" /></clipPath><clipPath
       id="clipPath468"><path
         d="m 267.998,568.187 -5.596,0 0,-6.627 5.596,0 0,6.627 z"
         id="path470" /></clipPath><clipPath
       id="clipPath472"><path
         d="m 267.998,574.051 -5.596,0 0,-6.629 5.596,0 0,6.629 z"
         id="path474" /></clipPath><clipPath
       id="clipPath476"><path
         d="m 267.998,579.954 -5.596,0 0,-6.63 5.596,0 0,6.63 z"
         id="path478" /></clipPath><clipPath
       id="clipPath480"><path
         d="m 267.998,585.842 -5.596,0 0,-6.629 5.596,0 0,6.629 z"
         id="path482" /></clipPath><clipPath
       id="clipPath484"><path
         d="m 267.998,591.73 -5.596,0 0,-6.625 5.596,0 0,6.625 z"
         id="path486" /></clipPath><clipPath
       id="clipPath488"><path
         d="m 267.998,597.631 -5.596,0 0,-6.625 5.596,0 0,6.625 z"
         id="path490" /></clipPath><clipPath
       id="clipPath492"><path
         d="m 267.998,603.496 -5.596,0 0,-6.627 5.596,0 0,6.627 z"
         id="path494" /></clipPath><clipPath
       id="clipPath496"><path
         d="m 267.998,609.4 -5.596,0 0,-6.629 5.596,0 0,6.629 z"
         id="path498" /></clipPath><clipPath
       id="clipPath500"><path
         d="m 267.998,615.342 -5.596,0 0,-6.63 5.596,0 0,6.63 z"
         id="path502" /></clipPath><clipPath
       id="clipPath504"><path
         d="m 267.998,621.248 -5.596,0 0,-6.629 5.596,0 0,6.629 z"
         id="path506" /></clipPath><clipPath
       id="clipPath508"><path
         d="m 267.998,627.105 -5.596,0 0,-6.625 5.596,0 0,6.625 z"
         id="path510" /></clipPath><clipPath
       id="clipPath512"><path
         d="m 267.998,633.008 -5.596,0 0,-6.627 5.596,0 0,6.627 z"
         id="path514" /></clipPath><clipPath
       id="clipPath516"><path
         d="m 267.998,638.896 -5.596,0 0,-6.625 5.596,0 0,6.625 z"
         id="path518" /></clipPath><clipPath
       id="clipPath520"><path
         d="m 267.998,644.8 -5.596,0 0,-6.627 5.596,0 0,6.627 z"
         id="path522" /></clipPath><clipPath
       id="clipPath524"><path
         d="m 262.403,650.134 5.594,0 0,0.527 -5.594,0 0,-0.527 z"
         id="path526" /></clipPath><clipPath
       id="clipPath528"><path
         d="m 262.403,650.134 5.594,0 0,6.43 -5.594,0 0,-6.43 z"
         id="path530" /></clipPath><clipPath
       id="clipPath532"><path
         d="m 262.403,655.824 5.594,0 0,6.628 -5.594,0 0,-6.628 z"
         id="path534" /></clipPath><clipPath
       id="clipPath536"><path
         d="m 262.403,661.728 5.594,0 0,6.627 -5.594,0 0,-6.627 z"
         id="path538" /></clipPath><clipPath
       id="clipPath540"><path
         d="m 262.403,667.587 5.594,0 0,6.628 -5.594,0 0,-6.628 z"
         id="path542" /></clipPath><clipPath
       id="clipPath544"><path
         d="m 262.403,673.489 5.594,0 0,6.628 -5.594,0 0,-6.628 z"
         id="path546" /></clipPath><clipPath
       id="clipPath548"><path
         d="m 262.403,679.376 5.594,0 0,6.628 -5.594,0 0,-6.628 z"
         id="path550" /></clipPath><clipPath
       id="clipPath552"><path
         d="m 262.403,685.266 5.594,0 0,6.627 -5.594,0 0,-6.627 z"
         id="path554" /></clipPath><clipPath
       id="clipPath556"><path
         d="m 262.403,691.167 5.594,0 0,6.628 -5.594,0 0,-6.628 z"
         id="path558" /></clipPath><clipPath
       id="clipPath560"><path
         d="m 262.403,697.03 5.594,0 0,6.628 -5.594,0 0,-6.628 z"
         id="path562" /></clipPath><clipPath
       id="clipPath564"><path
         d="m 262.403,702.931 5.594,0 0,6.629 -5.594,0 0,-6.629 z"
         id="path566" /></clipPath><clipPath
       id="clipPath568"><path
         d="m 262.403,708.872 5.594,0 0,6.626 -5.594,0 0,-6.626 z"
         id="path570" /></clipPath><clipPath
       id="clipPath572"><path
         d="m 262.403,714.776 5.594,0 0,6.629 -5.594,0 0,-6.629 z"
         id="path574" /></clipPath><clipPath
       id="clipPath576"><path
         d="m 262.403,720.635 5.594,0 0,5.628 -5.594,0 0,-5.628 z"
         id="path578" /></clipPath><clipPath
       id="clipPath53052"><path
         d="m 0,445.039 148.947,0 0,107.716 -148.947,0 0,-107.716 z"
         id="path53054" /></clipPath><clipPath
       id="clipPath53066"><path
         d="m 297.382,445.039 148.947,0 0,107.716 -148.947,0 0,-107.716 z"
         id="path53068" /></clipPath><clipPath
       id="clipPath53080"><path
         d="m 149.24,445.039 148.947,0 0,107.716 -148.947,0 0,-107.716 z"
         id="path53082" /></clipPath><clipPath
       id="clipPath53094"><path
         d="m 446.329,445.039 148.946,0 0,107.716 -148.946,0 0,-107.716 z"
         id="path53096" /></clipPath><clipPath
       id="clipPath53116"><path
         d="m 0,0 595.276,0 0,841.89 L 0,841.89 0,0 z"
         id="path53118" /></clipPath><clipPath
       id="clipPath53438"><path
         d="m 0,0 595.276,0 0,841.89 L 0,841.89 0,0 z"
         id="path53440" /></clipPath><clipPath
       id="clipPath53446"><path
         d="m 7.50391,437.063 578.00009,0 0,-291.37 -578.00009,0 0,291.37 z"
         id="path53448" /></clipPath><clipPath
       id="clipPath53450"><path
         d="m 268.889,146.693 315.615,0 0,105.387 -315.615,0 0,-105.387 z"
         id="path53452" /></clipPath><clipPath
       id="clipPath53454"><path
         d="m 10.961,146.693 573.543,0 0,289.37 -573.543,0 0,-289.37 z"
         id="path53456" /></clipPath><clipPath
       id="clipPath53458"><path
         d="m 603.361,-60.87 -334.472,0 0,94.674 334.472,0 0,-94.674 z"
         id="path53460" /></clipPath><clipPath
       id="clipPath53462"><path
         d="m 10.961,146.693 256.939,0 0,105.387 -256.939,0 0,-105.387 z"
         id="path53464" /></clipPath><clipPath
       id="clipPath53466"><path
         d="m 10.961,146.693 573.543,0 0,289.37 -573.543,0 0,-289.37 z"
         id="path53468" /></clipPath><clipPath
       id="clipPath53470"><path
         d="m 267.867,35.336 -5.596,0 0,5.656 5.596,0 0,-5.656 z"
         id="path53472" /></clipPath><clipPath
       id="clipPath53474"><path
         d="m 267.867,40.268 -5.596,0 0,6.629 5.596,0 0,-6.629 z"
         id="path53476" /></clipPath><clipPath
       id="clipPath53478"><path
         d="m 267.867,46.129 -5.596,0 0,6.628 5.596,0 0,-6.628 z"
         id="path53480" /></clipPath><clipPath
       id="clipPath53482"><path
         d="m 267.867,52.03 -5.596,0 0,6.629 5.596,0 0,-6.629 z"
         id="path53484" /></clipPath><clipPath
       id="clipPath53486"><path
         d="m 267.867,57.92 -5.596,0 0,6.626 5.596,0 0,-6.626 z"
         id="path53488" /></clipPath><clipPath
       id="clipPath53490"><path
         d="m 267.867,63.823 -5.596,0 0,6.629 5.596,0 0,-6.629 z"
         id="path53492" /></clipPath><clipPath
       id="clipPath53494"><path
         d="m 267.867,69.685 -5.596,0 0,6.627 5.596,0 0,-6.627 z"
         id="path53496" /></clipPath><clipPath
       id="clipPath53498"><path
         d="m 267.867,75.587 -5.596,0 0,6.627 5.596,0 0,-6.627 z"
         id="path53500" /></clipPath><clipPath
       id="clipPath53502"><path
         d="m 267.867,81.474 -5.596,0 0,6.627 5.596,0 0,-6.627 z"
         id="path53504" /></clipPath><clipPath
       id="clipPath53506"><path
         d="m 267.867,87.376 -5.596,0 0,6.627 5.596,0 0,-6.627 z"
         id="path53508" /></clipPath><clipPath
       id="clipPath53510"><path
         d="m 267.867,93.237 -5.596,0 0,6.63 5.596,0 0,-6.63 z"
         id="path53512" /></clipPath><clipPath
       id="clipPath53514"><path
         d="m 267.867,99.14 -5.596,0 0,6.627 5.596,0 0,-6.627 z"
         id="path53516" /></clipPath><clipPath
       id="clipPath53518"><path
         d="m 267.867,105.026 -5.596,0 0,6.629 5.596,0 0,-6.629 z"
         id="path53520" /></clipPath><clipPath
       id="clipPath53522"><path
         d="m 267.867,110.918 -5.596,0 0,6.626 5.596,0 0,-6.626 z"
         id="path53524" /></clipPath><clipPath
       id="clipPath53526"><path
         d="m 267.867,116.82 -5.596,0 0,6.625 5.596,0 0,-6.625 z"
         id="path53528" /></clipPath><clipPath
       id="clipPath53530"><path
         d="m 267.867,122.682 -5.596,0 0,6.628 5.596,0 0,-6.628 z"
         id="path53532" /></clipPath><clipPath
       id="clipPath53534"><path
         d="m 267.867,128.584 -5.596,0 0,6.627 5.596,0 0,-6.627 z"
         id="path53536" /></clipPath><clipPath
       id="clipPath53538"><path
         d="m 267.867,134.525 -5.596,0 0,6.625 5.596,0 0,-6.625 z"
         id="path53540" /></clipPath><clipPath
       id="clipPath53542"><path
         d="m 262.271,146.693 5.596,0 0,0.363 -5.596,0 0,-0.363 z"
         id="path53544" /></clipPath><clipPath
       id="clipPath53546"><path
         d="m 262.271,146.693 5.596,0 0,6.221 -5.596,0 0,-6.221 z"
         id="path53548" /></clipPath><clipPath
       id="clipPath53550"><path
         d="m 262.271,152.189 5.596,0 0,6.627 -5.596,0 0,-6.627 z"
         id="path53552" /></clipPath><clipPath
       id="clipPath53554"><path
         d="m 262.271,158.079 5.596,0 0,6.625 -5.596,0 0,-6.625 z"
         id="path53556" /></clipPath><clipPath
       id="clipPath53558"><path
         d="m 262.271,163.982 5.596,0 0,6.629 -5.596,0 0,-6.629 z"
         id="path53560" /></clipPath><clipPath
       id="clipPath53562"><path
         d="m 262.271,169.842 5.596,0 0,6.629 -5.596,0 0,-6.629 z"
         id="path53564" /></clipPath><clipPath
       id="clipPath53566"><path
         d="m 262.271,175.745 5.596,0 0,6.629 -5.596,0 0,-6.629 z"
         id="path53568" /></clipPath><clipPath
       id="clipPath53570"><path
         d="m 262.271,181.633 5.596,0 0,6.628 -5.596,0 0,-6.628 z"
         id="path53572" /></clipPath><clipPath
       id="clipPath53574"><path
         d="m 262.271,187.537 5.596,0 0,6.628 -5.596,0 0,-6.628 z"
         id="path53576" /></clipPath><clipPath
       id="clipPath53578"><path
         d="m 262.271,193.4 5.596,0 0,6.627 -5.596,0 0,-6.627 z"
         id="path53580" /></clipPath><clipPath
       id="clipPath53582"><path
         d="m 262.271,199.3 5.596,0 0,6.628 -5.596,0 0,-6.628 z"
         id="path53584" /></clipPath><clipPath
       id="clipPath53586"><path
         d="m 262.271,205.188 5.596,0 0,6.629 -5.596,0 0,-6.629 z"
         id="path53588" /></clipPath><clipPath
       id="clipPath53590"><path
         d="m 262.271,211.08 5.596,0 0,6.629 -5.596,0 0,-6.629 z"
         id="path53592" /></clipPath><clipPath
       id="clipPath53594"><path
         d="m 262.271,216.983 5.596,0 0,6.627 -5.596,0 0,-6.627 z"
         id="path53596" /></clipPath><clipPath
       id="clipPath53598"><path
         d="m 262.271,222.845 5.596,0 0,6.628 -5.596,0 0,-6.628 z"
         id="path53600" /></clipPath><clipPath
       id="clipPath53602"><path
         d="m 262.271,228.747 5.596,0 0,6.628 -5.596,0 0,-6.628 z"
         id="path53604" /></clipPath><clipPath
       id="clipPath53606"><path
         d="m 262.271,234.688 5.596,0 0,6.626 -5.596,0 0,-6.626 z"
         id="path53608" /></clipPath><clipPath
       id="clipPath53610"><path
         d="m 262.271,240.591 5.596,0 0,6.629 -5.596,0 0,-6.629 z"
         id="path53612" /></clipPath><clipPath
       id="clipPath53614"><path
         d="m 262.271,246.452 5.596,0 0,5.628 -5.596,0 0,-5.628 z"
         id="path53616" /></clipPath><clipPath
       id="clipPath53618"><path
         d="m 10.961,146.693 573.543,0 0,289.37 -573.543,0 0,-289.37 z"
         id="path53620" /></clipPath><clipPath
       id="clipPath53622"><path
         d="m 267.9,-60.87 -256.939,0 0,94.674 256.939,0 0,-94.674 z"
         id="path53624" /></clipPath><clipPath
       id="clipPath53626"><path
         d="m 267.867,-60.87 -5.596,0 0,1.42 5.596,0 0,-1.42 z"
         id="path53628" /></clipPath><clipPath
       id="clipPath53630"><path
         d="m 267.867,-60.189 -5.596,0 0,6.625 5.596,0 0,-6.625 z"
         id="path53632" /></clipPath><clipPath
       id="clipPath53634"><path
         d="m 267.867,-54.286 -5.596,0 0,6.627 5.596,0 0,-6.627 z"
         id="path53636" /></clipPath><clipPath
       id="clipPath53638"><path
         d="m 267.867,-48.427 -5.596,0 0,6.627 5.596,0 0,-6.627 z"
         id="path53640" /></clipPath><clipPath
       id="clipPath53642"><path
         d="m 267.867,-42.523 -5.596,0 0,6.628 5.596,0 0,-6.628 z"
         id="path53644" /></clipPath><clipPath
       id="clipPath53646"><path
         d="m 267.867,-36.636 -5.596,0 0,6.627 5.596,0 0,-6.627 z"
         id="path53648" /></clipPath><clipPath
       id="clipPath53650"><path
         d="m 267.867,-30.733 -5.596,0 0,6.629 5.596,0 0,-6.629 z"
         id="path53652" /></clipPath><clipPath
       id="clipPath53654"><path
         d="m 267.867,-24.872 -5.596,0 0,6.627 5.596,0 0,-6.627 z"
         id="path53656" /></clipPath><clipPath
       id="clipPath53658"><path
         d="m 267.867,-18.97 -5.596,0 0,6.627 5.596,0 0,-6.627 z"
         id="path53660" /></clipPath><clipPath
       id="clipPath53662"><path
         d="m 267.867,-13.083 -5.596,0 0,6.628 5.596,0 0,-6.628 z"
         id="path53664" /></clipPath><clipPath
       id="clipPath53666"><path
         d="m 267.867,-7.192 -5.596,0 0,6.625 5.596,0 0,-6.625 z"
         id="path53668" /></clipPath><clipPath
       id="clipPath53670"><path
         d="m 267.867,-1.292 -5.596,0 0,6.627 5.596,0 0,-6.627 z"
         id="path53672" /></clipPath><clipPath
       id="clipPath53674"><path
         d="m 267.867,4.572 -5.596,0 0,6.627 5.596,0 0,-6.627 z"
         id="path53676" /></clipPath><clipPath
       id="clipPath53678"><path
         d="m 267.867,10.472 -5.596,0 0,6.629 5.596,0 0,-6.629 z"
         id="path53680" /></clipPath><clipPath
       id="clipPath53682"><path
         d="m 267.867,16.413 -5.596,0 0,6.625 5.596,0 0,-6.625 z"
         id="path53684" /></clipPath><clipPath
       id="clipPath53686"><path
         d="m 267.867,22.315 -5.596,0 0,6.629 5.596,0 0,-6.629 z"
         id="path53688" /></clipPath><clipPath
       id="clipPath53690"><path
         d="m 267.867,28.177 -5.596,0 0,5.627 5.596,0 0,-5.627 z"
         id="path53692" /></clipPath><clipPath
       id="clipPath53694"><path
         d="m 269.019,328.94 315.485,0 0,107.122 -315.485,0 0,-107.122 z"
         id="path53696" /></clipPath><clipPath
       id="clipPath53698"><path
         d="m 269.019,252.811 315.485,0 0,76.129 -315.485,0 0,-76.129 z"
         id="path53700" /></clipPath><clipPath
       id="clipPath53702"><path
         d="m 11.092,328.94 256.938,0 0,107.122 -256.938,0 0,-107.122 z"
         id="path53704" /></clipPath><clipPath
       id="clipPath53706"><path
         d="m 262.403,330.472 5.594,0 0,5.656 -5.594,0 0,-5.656 z"
         id="path53708" /></clipPath><clipPath
       id="clipPath53710"><path
         d="m 262.403,335.406 5.594,0 0,6.628 -5.594,0 0,-6.628 z"
         id="path53712" /></clipPath><clipPath
       id="clipPath53714"><path
         d="m 262.403,341.265 5.594,0 0,6.629 -5.594,0 0,-6.629 z"
         id="path53716" /></clipPath><clipPath
       id="clipPath53718"><path
         d="m 262.403,347.168 5.594,0 0,6.629 -5.594,0 0,-6.629 z"
         id="path53720" /></clipPath><clipPath
       id="clipPath53722"><path
         d="m 262.403,353.056 5.594,0 0,6.628 -5.594,0 0,-6.628 z"
         id="path53724" /></clipPath><clipPath
       id="clipPath53726"><path
         d="m 262.403,358.96 5.594,0 0,6.629 -5.594,0 0,-6.629 z"
         id="path53728" /></clipPath><clipPath
       id="clipPath53730"><path
         d="m 262.403,364.821 5.594,0 0,6.629 -5.594,0 0,-6.629 z"
         id="path53732" /></clipPath><clipPath
       id="clipPath53734"><path
         d="m 262.403,370.723 5.594,0 0,6.629 -5.594,0 0,-6.629 z"
         id="path53736" /></clipPath><clipPath
       id="clipPath53738"><path
         d="m 262.403,376.609 5.594,0 0,6.629 -5.594,0 0,-6.629 z"
         id="path53740" /></clipPath><clipPath
       id="clipPath53742"><path
         d="m 262.403,382.512 5.594,0 0,6.628 -5.594,0 0,-6.628 z"
         id="path53744" /></clipPath><clipPath
       id="clipPath53746"><path
         d="m 262.403,388.374 5.594,0 0,6.629 -5.594,0 0,-6.629 z"
         id="path53748" /></clipPath><clipPath
       id="clipPath53750"><path
         d="m 262.403,394.276 5.594,0 0,6.628 -5.594,0 0,-6.628 z"
         id="path53752" /></clipPath><clipPath
       id="clipPath53754"><path
         d="m 262.403,400.163 5.594,0 0,6.629 -5.594,0 0,-6.629 z"
         id="path53756" /></clipPath><clipPath
       id="clipPath53758"><path
         d="m 262.403,406.054 5.594,0 0,6.626 -5.594,0 0,-6.626 z"
         id="path53760" /></clipPath><clipPath
       id="clipPath53762"><path
         d="m 262.403,411.956 5.594,0 0,6.626 -5.594,0 0,-6.626 z"
         id="path53764" /></clipPath><clipPath
       id="clipPath53766"><path
         d="m 262.403,417.818 5.594,0 0,6.627 -5.594,0 0,-6.627 z"
         id="path53768" /></clipPath><clipPath
       id="clipPath53770"><path
         d="m 262.403,423.721 5.594,0 0,6.627 -5.594,0 0,-6.627 z"
         id="path53772" /></clipPath><clipPath
       id="clipPath53774"><path
         d="m 262.403,429.661 5.594,0 0,6.402 -5.594,0 0,-6.402 z"
         id="path53776" /></clipPath><clipPath
       id="clipPath53778"><path
         d="m 262.403,435.563 5.594,0 0,0.499 -5.594,0 0,-0.499 z"
         id="path53780" /></clipPath><clipPath
       id="clipPath53782"><path
         d="m 10.961,146.693 573.543,0 0,289.37 -573.543,0 0,-289.37 z"
         id="path53784" /></clipPath><clipPath
       id="clipPath53786"><path
         d="m 267.998,441.424 -5.595,0 0,6.626 5.595,0 0,-6.626 z"
         id="path53788" /></clipPath><clipPath
       id="clipPath53790"><path
         d="m 267.998,447.326 -5.595,0 0,6.628 5.595,0 0,-6.628 z"
         id="path53792" /></clipPath><clipPath
       id="clipPath53794"><path
         d="m 267.998,453.215 -5.595,0 0,6.625 5.595,0 0,-6.625 z"
         id="path53796" /></clipPath><clipPath
       id="clipPath53798"><path
         d="m 267.998,459.118 -5.595,0 0,6.628 5.595,0 0,-6.628 z"
         id="path53800" /></clipPath><clipPath
       id="clipPath53802"><path
         d="m 267.998,464.978 -5.595,0 0,6.627 5.595,0 0,-6.627 z"
         id="path53804" /></clipPath><clipPath
       id="clipPath53806"><path
         d="m 267.998,470.881 -5.595,0 0,6.627 5.595,0 0,-6.627 z"
         id="path53808" /></clipPath><clipPath
       id="clipPath53810"><path
         d="m 267.998,476.768 -5.595,0 0,6.627 5.595,0 0,-6.627 z"
         id="path53812" /></clipPath><clipPath
       id="clipPath53814"><path
         d="m 267.998,482.672 -5.595,0 0,6.628 5.595,0 0,-6.628 z"
         id="path53816" /></clipPath><clipPath
       id="clipPath53818"><path
         d="m 267.998,488.533 -5.595,0 0,6.627 5.595,0 0,-6.627 z"
         id="path53820" /></clipPath><clipPath
       id="clipPath53822"><path
         d="m 267.998,494.435 -5.595,0 0,6.627 5.595,0 0,-6.627 z"
         id="path53824" /></clipPath><clipPath
       id="clipPath53826"><path
         d="m 267.998,500.321 -5.595,0 0,6.628 5.595,0 0,-6.628 z"
         id="path53828" /></clipPath><clipPath
       id="clipPath53830"><path
         d="m 267.998,506.213 -5.595,0 0,6.625 5.595,0 0,-6.625 z"
         id="path53832" /></clipPath><clipPath
       id="clipPath53834"><path
         d="m 267.998,512.112 -5.595,0 0,6.627 5.595,0 0,-6.627 z"
         id="path53836" /></clipPath><clipPath
       id="clipPath53838"><path
         d="m 267.998,517.975 -5.595,0 0,6.628 5.595,0 0,-6.628 z"
         id="path53840" /></clipPath><clipPath
       id="clipPath53842"><path
         d="m 267.998,523.876 -5.595,0 0,6.629 5.595,0 0,-6.629 z"
         id="path53844" /></clipPath><clipPath
       id="clipPath53846"><path
         d="m 267.998,529.817 -5.595,0 0,4.589 5.595,0 0,-4.589 z"
         id="path53848" /></clipPath><clipPath
       id="clipPath53850"><path
         d="m 11.092,252.811 256.938,0 0,76.129 -256.938,0 0,-76.129 z"
         id="path53852" /></clipPath><clipPath
       id="clipPath53854"><path
         d="m 267.998,117.853 -5.596,0 0,-5.656 5.596,0 0,5.656 z"
         id="path53856" /></clipPath><clipPath
       id="clipPath53858"><path
         d="m 267.998,123.759 -5.596,0 0,-6.629 5.596,0 0,6.629 z"
         id="path53860" /></clipPath><clipPath
       id="clipPath53862"><path
         d="m 267.998,129.618 -5.596,0 0,-6.627 5.596,0 0,6.627 z"
         id="path53864" /></clipPath><clipPath
       id="clipPath53866"><path
         d="m 267.998,135.519 -5.596,0 0,-6.627 5.596,0 0,6.627 z"
         id="path53868" /></clipPath><clipPath
       id="clipPath53870"><path
         d="m 267.998,141.407 -5.596,0 0,-6.625 5.596,0 0,6.625 z"
         id="path53872" /></clipPath><clipPath
       id="clipPath53874"><path
         d="m 267.998,147.312 -5.596,0 0,-6.627 5.596,0 0,6.627 z"
         id="path53876" /></clipPath><clipPath
       id="clipPath53878"><path
         d="m 267.998,153.173 -5.596,0 0,-6.627 5.596,0 0,6.627 z"
         id="path53880" /></clipPath><clipPath
       id="clipPath53882"><path
         d="m 267.998,159.075 -5.596,0 0,-6.627 5.596,0 0,6.627 z"
         id="path53884" /></clipPath><clipPath
       id="clipPath53886"><path
         d="m 267.998,164.962 -5.596,0 0,-6.627 5.596,0 0,6.627 z"
         id="path53888" /></clipPath><clipPath
       id="clipPath53890"><path
         d="m 267.998,170.864 -5.596,0 0,-6.627 5.596,0 0,6.627 z"
         id="path53892" /></clipPath><clipPath
       id="clipPath53894"><path
         d="m 267.998,176.728 -5.596,0 0,-6.629 5.596,0 0,6.629 z"
         id="path53896" /></clipPath><clipPath
       id="clipPath53898"><path
         d="m 267.998,182.631 -5.596,0 0,-6.63 5.596,0 0,6.63 z"
         id="path53900" /></clipPath><clipPath
       id="clipPath53902"><path
         d="m 267.998,188.519 -5.596,0 0,-6.629 5.596,0 0,6.629 z"
         id="path53904" /></clipPath><clipPath
       id="clipPath53906"><path
         d="m 267.998,194.407 -5.596,0 0,-6.625 5.596,0 0,6.625 z"
         id="path53908" /></clipPath><clipPath
       id="clipPath53910"><path
         d="m 267.998,200.308 -5.596,0 0,-6.625 5.596,0 0,6.625 z"
         id="path53912" /></clipPath><clipPath
       id="clipPath53914"><path
         d="m 267.998,206.173 -5.596,0 0,-6.627 5.596,0 0,6.627 z"
         id="path53916" /></clipPath><clipPath
       id="clipPath53918"><path
         d="m 267.998,212.077 -5.596,0 0,-6.629 5.596,0 0,6.629 z"
         id="path53920" /></clipPath><clipPath
       id="clipPath53922"><path
         d="m 267.998,218.019 -5.596,0 0,-6.63 5.596,0 0,6.63 z"
         id="path53924" /></clipPath><clipPath
       id="clipPath53926"><path
         d="m 267.998,223.925 -5.596,0 0,-6.629 5.596,0 0,6.629 z"
         id="path53928" /></clipPath><clipPath
       id="clipPath53930"><path
         d="m 267.998,229.782 -5.596,0 0,-6.625 5.596,0 0,6.625 z"
         id="path53932" /></clipPath><clipPath
       id="clipPath53934"><path
         d="m 267.998,235.685 -5.596,0 0,-6.627 5.596,0 0,6.627 z"
         id="path53936" /></clipPath><clipPath
       id="clipPath53938"><path
         d="m 267.998,241.573 -5.596,0 0,-6.625 5.596,0 0,6.625 z"
         id="path53940" /></clipPath><clipPath
       id="clipPath53942"><path
         d="m 267.998,247.477 -5.596,0 0,-6.627 5.596,0 0,6.627 z"
         id="path53944" /></clipPath><clipPath
       id="clipPath53946"><path
         d="m 262.403,252.811 5.594,0 0,0.528 -5.594,0 0,-0.528 z"
         id="path53948" /></clipPath><clipPath
       id="clipPath53950"><path
         d="m 262.403,252.811 5.594,0 0,6.43 -5.594,0 0,-6.43 z"
         id="path53952" /></clipPath><clipPath
       id="clipPath53954"><path
         d="m 262.403,258.501 5.594,0 0,6.628 -5.594,0 0,-6.628 z"
         id="path53956" /></clipPath><clipPath
       id="clipPath53958"><path
         d="m 262.403,264.405 5.594,0 0,6.627 -5.594,0 0,-6.627 z"
         id="path53960" /></clipPath><clipPath
       id="clipPath53962"><path
         d="m 262.403,270.264 5.594,0 0,6.628 -5.594,0 0,-6.628 z"
         id="path53964" /></clipPath><clipPath
       id="clipPath53966"><path
         d="m 262.403,276.166 5.594,0 0,6.628 -5.594,0 0,-6.628 z"
         id="path53968" /></clipPath><clipPath
       id="clipPath53970"><path
         d="m 262.403,282.053 5.594,0 0,6.628 -5.594,0 0,-6.628 z"
         id="path53972" /></clipPath><clipPath
       id="clipPath53974"><path
         d="m 262.403,287.943 5.594,0 0,6.627 -5.594,0 0,-6.627 z"
         id="path53976" /></clipPath><clipPath
       id="clipPath53978"><path
         d="m 262.403,293.844 5.594,0 0,6.628 -5.594,0 0,-6.628 z"
         id="path53980" /></clipPath><clipPath
       id="clipPath53982"><path
         d="m 262.403,299.708 5.594,0 0,6.627 -5.594,0 0,-6.627 z"
         id="path53984" /></clipPath><clipPath
       id="clipPath53986"><path
         d="m 262.403,305.608 5.594,0 0,6.629 -5.594,0 0,-6.629 z"
         id="path53988" /></clipPath><clipPath
       id="clipPath53990"><path
         d="m 262.403,311.549 5.594,0 0,6.627 -5.594,0 0,-6.627 z"
         id="path53992" /></clipPath><clipPath
       id="clipPath53994"><path
         d="m 262.403,317.452 5.594,0 0,6.629 -5.594,0 0,-6.629 z"
         id="path53996" /></clipPath><clipPath
       id="clipPath53998"><path
         d="m 262.403,323.312 5.594,0 0,5.629 -5.594,0 0,-5.629 z"
         id="path54000" /></clipPath></defs><g
     transform="matrix(1.25,0,0,-1.25,-484.09636,381.77743)"
     id="g10"><g
       transform="matrix(4.3352997,0,0,4.3352997,-1358.3912,-207.24585)"
       id="g110059"><g
         id="g109984"><g
           id="g109908"><path
             d="m 423.6671,111.3 c 0,-1.294 -1.05,-2.34 -2.344,-2.34 -1.291,0 -2.34,1.046 -2.34,2.34 0,1.294 1.049,2.341 2.34,2.341 1.294,0 2.344,-1.047 2.344,-2.341"
             id="path53122"
             style="fill:#efac1f;fill-opacity:1;fill-rule:nonzero;stroke:none" /><path
             d="m 411.9591,93.7438 c 0,-1.294 -1.047,-2.342 -2.34,-2.342 -1.292,0 -2.342,1.048 -2.342,2.342 0,1.293 1.05,2.34 2.342,2.34 1.293,0 2.34,-1.047 2.34,-2.34"
             id="path53130"
             style="fill:#efac1f;fill-opacity:1;fill-rule:nonzero;stroke:none" /><path
             d="m 435.3723,76.1852 c 0,-1.294 -1.047,-2.341 -2.342,-2.341 -1.293,0 -2.341,1.047 -2.341,2.341 0,1.293 1.048,2.34 2.341,2.34 1.295,0 2.342,-1.047 2.342,-2.34"
             id="path53146"
             style="fill:#efac1f;fill-opacity:1;fill-rule:nonzero;stroke:none" /><path
             d="m 447.0753,76.1852 c 0,-1.294 -1.045,-2.341 -2.339,-2.341 -1.296,0 -2.342,1.047 -2.342,2.341 0,1.293 1.046,2.34 2.342,2.34 1.294,0 2.339,-1.047 2.339,-2.34"
             id="path53150"
             style="fill:#efac1f;fill-opacity:1;fill-rule:nonzero;stroke:none" /><path
             d="m 458.7794,76.1852 c 0,-1.294 -1.047,-2.341 -2.339,-2.341 -1.293,0 -2.342,1.047 -2.342,2.341 0,1.293 1.049,2.34 2.342,2.34 1.292,0 2.339,-1.047 2.339,-2.34"
             id="path53174"
             style="fill:#efac1f;fill-opacity:1;fill-rule:nonzero;stroke:none" /><path
             d="m 464.6339,76.1852 c 0,-1.294 -1.047,-2.341 -2.342,-2.341 -1.292,0 -2.34,1.047 -2.34,2.341 0,1.293 1.048,2.34 2.34,2.34 1.295,0 2.342,-1.047 2.342,-2.34"
             id="path53178"
             style="fill:#efac1f;fill-opacity:1;fill-rule:nonzero;stroke:none" /><path
             d="m 470.4865,76.1852 c 0,-1.294 -1.049,-2.341 -2.34,-2.341 -1.292,0 -2.343,1.047 -2.343,2.341 0,1.293 1.051,2.34 2.343,2.34 1.291,0 2.34,-1.047 2.34,-2.34"
             id="path53182"
             style="fill:#efac1f;fill-opacity:1;fill-rule:nonzero;stroke:none" /><path
             d="m 476.338,76.1852 c 0,-1.294 -1.047,-2.341 -2.34,-2.341 -1.293,0 -2.34,1.047 -2.34,2.341 0,1.293 1.047,2.34 2.34,2.34 1.293,0 2.34,-1.047 2.34,-2.34"
             id="path53210"
             style="fill:#efac1f;fill-opacity:1;fill-rule:nonzero;stroke:none" /><path
             d="m 482.1925,76.1852 c 0,-1.294 -1.05,-2.341 -2.342,-2.341 -1.292,0 -2.34,1.047 -2.34,2.341 0,1.293 1.048,2.34 2.34,2.34 1.292,0 2.342,-1.047 2.342,-2.34"
             id="path53214"
             style="fill:#efac1f;fill-opacity:1;fill-rule:nonzero;stroke:none" /><path
             d="m 488.0432,76.1852 c 0,-1.294 -1.047,-2.341 -2.339,-2.341 -1.295,0 -2.342,1.047 -2.342,2.341 0,1.293 1.047,2.34 2.342,2.34 1.292,0 2.339,-1.047 2.339,-2.34"
             id="path53218"
             style="fill:#efac1f;fill-opacity:1;fill-rule:nonzero;stroke:none" /><path
             d="m 493.8976,76.1852 c 0,-1.294 -1.047,-2.341 -2.342,-2.341 -1.292,0 -2.339,1.047 -2.339,2.341 0,1.293 1.047,2.34 2.339,2.34 1.295,0 2.342,-1.047 2.342,-2.34"
             id="path53222"
             style="fill:#efac1f;fill-opacity:1;fill-rule:nonzero;stroke:none" /><path
             d="m 499.7501,76.1852 c 0,-1.294 -1.049,-2.341 -2.341,-2.341 -1.293,0 -2.344,1.047 -2.344,2.341 0,1.293 1.051,2.34 2.344,2.34 1.292,0 2.341,-1.047 2.341,-2.34"
             id="path53258"
             style="fill:#efac1f;fill-opacity:1;fill-rule:nonzero;stroke:none" /><path
             d="m 505.6017,76.1852 c 0,-1.294 -1.047,-2.341 -2.342,-2.341 -1.292,0 -2.339,1.047 -2.339,2.341 0,1.293 1.047,2.34 2.339,2.34 1.295,0 2.342,-1.047 2.342,-2.34"
             id="path53262"
             style="fill:#efac1f;fill-opacity:1;fill-rule:nonzero;stroke:none" /><path
             d="m 511.4561,76.1852 c 0,-1.294 -1.05,-2.341 -2.343,-2.341 -1.291,0 -2.343,1.047 -2.343,2.341 0,1.293 1.052,2.34 2.343,2.34 1.293,0 2.343,-1.047 2.343,-2.34"
             id="path53266"
             style="fill:#efac1f;fill-opacity:1;fill-rule:nonzero;stroke:none" /><path
             d="m 517.3067,76.1852 c 0,-1.294 -1.047,-2.341 -2.34,-2.341 -1.292,0 -2.342,1.047 -2.342,2.341 0,1.293 1.05,2.34 2.342,2.34 1.293,0 2.34,-1.047 2.34,-2.34"
             id="path53270"
             style="fill:#efac1f;fill-opacity:1;fill-rule:nonzero;stroke:none" /><path
             d="m 523.1603,76.1852 c 0,-1.294 -1.049,-2.341 -2.342,-2.341 -1.293,0 -2.34,1.047 -2.34,2.341 0,1.293 1.047,2.34 2.34,2.34 1.293,0 2.342,-1.047 2.342,-2.34"
             id="path53306"
             style="fill:#efac1f;fill-opacity:1;fill-rule:nonzero;stroke:none" /><path
             d="m 529.0139,76.1852 c 0,-1.294 -1.049,-2.341 -2.34,-2.341 -1.295,0 -2.345,1.047 -2.345,2.341 0,1.293 1.05,2.34 2.345,2.34 1.291,0 2.34,-1.047 2.34,-2.34"
             id="path53310"
             style="fill:#efac1f;fill-opacity:1;fill-rule:nonzero;stroke:none" /><path
             d="m 534.8654,76.1852 c 0,-1.294 -1.047,-2.341 -2.34,-2.341 -1.295,0 -2.342,1.047 -2.342,2.341 0,1.293 1.047,2.34 2.342,2.34 1.293,0 2.34,-1.047 2.34,-2.34"
             id="path53314"
             style="fill:#efac1f;fill-opacity:1;fill-rule:nonzero;stroke:none" /><path
             d="m 540.7198,76.1852 c 0,-1.294 -1.05,-2.341 -2.342,-2.341 -1.293,0 -2.345,1.047 -2.345,2.341 0,1.293 1.052,2.34 2.345,2.34 1.292,0 2.342,-1.047 2.342,-2.34"
             id="path53318"
             style="fill:#efac1f;fill-opacity:1;fill-rule:nonzero;stroke:none" /><path
             d="m 546.5704,76.1852 c 0,-1.294 -1.046,-2.341 -2.343,-2.341 -1.293,0 -2.34,1.047 -2.34,2.341 0,1.293 1.047,2.34 2.34,2.34 1.297,0 2.343,-1.047 2.343,-2.34"
             id="path53354"
             style="fill:#efac1f;fill-opacity:1;fill-rule:nonzero;stroke:none" /><path
             d="m 552.424,76.1852 c 0,-1.294 -1.048,-2.341 -2.342,-2.341 -1.293,0 -2.34,1.047 -2.34,2.341 0,1.293 1.047,2.34 2.34,2.34 1.294,0 2.342,-1.047 2.342,-2.34"
             id="path53358"
             style="fill:#efac1f;fill-opacity:1;fill-rule:nonzero;stroke:none" /><path
             d="m 558.2766,76.1852 c 0,-1.294 -1.049,-2.341 -2.34,-2.341 -1.293,0 -2.344,1.047 -2.344,2.341 0,1.293 1.051,2.34 2.344,2.34 1.291,0 2.34,-1.047 2.34,-2.34"
             id="path53362"
             style="fill:#efac1f;fill-opacity:1;fill-rule:nonzero;stroke:none" /><path
             d="m 564.129,76.1852 c 0,-1.294 -1.047,-2.341 -2.342,-2.341 -1.293,0 -2.34,1.047 -2.34,2.341 0,1.293 1.047,2.34 2.34,2.34 1.295,0 2.342,-1.047 2.342,-2.34"
             id="path53366"
             style="fill:#efac1f;fill-opacity:1;fill-rule:nonzero;stroke:none" /></g><g
           id="g109933"><path
             d="m 423.6671,87.8898 c 0,-1.294 -1.05,-2.344 -2.344,-2.344 -1.291,0 -2.34,1.05 -2.34,2.344 0,1.292 1.049,2.34 2.34,2.34 1.294,0 2.344,-1.048 2.344,-2.34"
             id="path53134"
             style="fill:#e75325;fill-opacity:1;fill-rule:nonzero;stroke:none" /><path
             d="m 417.8136,70.3317 c 0,-1.294 -1.047,-2.344 -2.343,-2.344 -1.293,0 -2.34,1.05 -2.34,2.344 0,1.293 1.047,2.34 2.34,2.34 1.296,0 2.343,-1.047 2.343,-2.34"
             id="path53142"
             style="fill:#e75325;fill-opacity:1;fill-rule:nonzero;stroke:none" /><path
             d="m 429.5177,70.3317 c 0,-1.294 -1.047,-2.344 -2.341,-2.344 -1.293,0 -2.341,1.05 -2.341,2.344 0,1.293 1.048,2.34 2.341,2.34 1.294,0 2.341,-1.047 2.341,-2.34"
             id="path53154"
             style="fill:#e75325;fill-opacity:1;fill-rule:nonzero;stroke:none" /><path
             d="m 441.2257,70.3317 c 0,-1.294 -1.052,-2.344 -2.344,-2.344 -1.291,0 -2.342,1.05 -2.342,2.344 0,1.293 1.051,2.34 2.342,2.34 1.292,0 2.344,-1.047 2.344,-2.34"
             id="path53162"
             style="fill:#e75325;fill-opacity:1;fill-rule:nonzero;stroke:none" /><path
             d="m 447.0753,70.3317 c 0,-1.294 -1.045,-2.344 -2.339,-2.344 -1.296,0 -2.342,1.05 -2.342,2.344 0,1.293 1.046,2.34 2.342,2.34 1.294,0 2.339,-1.047 2.339,-2.34"
             id="path53166"
             style="fill:#e75325;fill-opacity:1;fill-rule:nonzero;stroke:none" /><path
             d="m 452.9308,70.3317 c 0,-1.294 -1.05,-2.344 -2.343,-2.344 -1.293,0 -2.342,1.05 -2.342,2.344 0,1.293 1.049,2.34 2.342,2.34 1.293,0 2.343,-1.047 2.343,-2.34"
             id="path53186"
             style="fill:#e75325;fill-opacity:1;fill-rule:nonzero;stroke:none" /><path
             d="m 458.7794,70.3317 c 0,-1.294 -1.047,-2.344 -2.339,-2.344 -1.293,0 -2.342,1.05 -2.342,2.344 0,1.293 1.049,2.34 2.342,2.34 1.292,0 2.339,-1.047 2.339,-2.34"
             id="path53190"
             style="fill:#e75325;fill-opacity:1;fill-rule:nonzero;stroke:none" /><path
             d="m 464.6339,70.3317 c 0,-1.294 -1.047,-2.344 -2.342,-2.344 -1.292,0 -2.34,1.05 -2.34,2.344 0,1.293 1.048,2.34 2.34,2.34 1.295,0 2.342,-1.047 2.342,-2.34"
             id="path53198"
             style="fill:#e75325;fill-opacity:1;fill-rule:nonzero;stroke:none" /><path
             d="m 470.4865,70.3317 c 0,-1.294 -1.049,-2.344 -2.34,-2.344 -1.292,0 -2.343,1.05 -2.343,2.344 0,1.293 1.051,2.34 2.343,2.34 1.291,0 2.34,-1.047 2.34,-2.34"
             id="path53202"
             style="fill:#e75325;fill-opacity:1;fill-rule:nonzero;stroke:none" /><path
             d="m 476.338,70.3317 c 0,-1.294 -1.047,-2.344 -2.34,-2.344 -1.293,0 -2.34,1.05 -2.34,2.344 0,1.293 1.047,2.34 2.34,2.34 1.293,0 2.34,-1.047 2.34,-2.34"
             id="path53226"
             style="fill:#e75325;fill-opacity:1;fill-rule:nonzero;stroke:none" /><path
             d="m 482.1925,70.3317 c 0,-1.294 -1.05,-2.344 -2.342,-2.344 -1.292,0 -2.34,1.05 -2.34,2.344 0,1.293 1.048,2.34 2.34,2.34 1.292,0 2.342,-1.047 2.342,-2.34"
             id="path53230"
             style="fill:#e75325;fill-opacity:1;fill-rule:nonzero;stroke:none" /><path
             d="m 488.0432,70.3317 c 0,-1.294 -1.047,-2.344 -2.339,-2.344 -1.295,0 -2.342,1.05 -2.342,2.344 0,1.293 1.047,2.34 2.342,2.34 1.292,0 2.339,-1.047 2.339,-2.34"
             id="path53242"
             style="fill:#e75325;fill-opacity:1;fill-rule:nonzero;stroke:none" /><path
             d="m 493.8976,70.3317 c 0,-1.294 -1.047,-2.344 -2.342,-2.344 -1.292,0 -2.339,1.05 -2.339,2.344 0,1.293 1.047,2.34 2.339,2.34 1.295,0 2.342,-1.047 2.342,-2.34"
             id="path53246"
             style="fill:#e75325;fill-opacity:1;fill-rule:nonzero;stroke:none" /><path
             d="m 499.7501,70.3317 c 0,-1.294 -1.049,-2.344 -2.341,-2.344 -1.293,0 -2.344,1.05 -2.344,2.344 0,1.293 1.051,2.34 2.344,2.34 1.292,0 2.341,-1.047 2.341,-2.34"
             id="path53274"
             style="fill:#e75325;fill-opacity:1;fill-rule:nonzero;stroke:none" /><path
             d="m 505.6017,70.3317 c 0,-1.294 -1.047,-2.344 -2.342,-2.344 -1.292,0 -2.339,1.05 -2.339,2.344 0,1.293 1.047,2.34 2.339,2.34 1.295,0 2.342,-1.047 2.342,-2.34"
             id="path53278"
             style="fill:#e75325;fill-opacity:1;fill-rule:nonzero;stroke:none" /><path
             d="m 511.4561,70.3317 c 0,-1.294 -1.05,-2.344 -2.343,-2.344 -1.291,0 -2.343,1.05 -2.343,2.344 0,1.293 1.052,2.34 2.343,2.34 1.293,0 2.343,-1.047 2.343,-2.34"
             id="path53290"
             style="fill:#e75325;fill-opacity:1;fill-rule:nonzero;stroke:none" /><path
             d="m 517.3067,70.3317 c 0,-1.294 -1.047,-2.344 -2.34,-2.344 -1.292,0 -2.342,1.05 -2.342,2.344 0,1.293 1.05,2.34 2.342,2.34 1.293,0 2.34,-1.047 2.34,-2.34"
             id="path53294"
             style="fill:#e75325;fill-opacity:1;fill-rule:nonzero;stroke:none" /><path
             d="m 523.1603,70.3317 c 0,-1.294 -1.049,-2.344 -2.342,-2.344 -1.293,0 -2.34,1.05 -2.34,2.344 0,1.293 1.047,2.34 2.34,2.34 1.293,0 2.342,-1.047 2.342,-2.34"
             id="path53322"
             style="fill:#e75325;fill-opacity:1;fill-rule:nonzero;stroke:none" /><path
             d="m 529.0139,70.3317 c 0,-1.294 -1.049,-2.344 -2.34,-2.344 -1.295,0 -2.345,1.05 -2.345,2.344 0,1.293 1.05,2.34 2.345,2.34 1.291,0 2.34,-1.047 2.34,-2.34"
             id="path53326"
             style="fill:#e75325;fill-opacity:1;fill-rule:nonzero;stroke:none" /><path
             d="m 534.8654,70.3317 c 0,-1.294 -1.047,-2.344 -2.34,-2.344 -1.295,0 -2.342,1.05 -2.342,2.344 0,1.293 1.047,2.34 2.342,2.34 1.293,0 2.34,-1.047 2.34,-2.34"
             id="path53338"
             style="fill:#e75325;fill-opacity:1;fill-rule:nonzero;stroke:none" /><path
             d="m 540.7198,70.3317 c 0,-1.294 -1.05,-2.344 -2.342,-2.344 -1.293,0 -2.345,1.05 -2.345,2.344 0,1.293 1.052,2.34 2.345,2.34 1.292,0 2.342,-1.047 2.342,-2.34"
             id="path53342"
             style="fill:#e75325;fill-opacity:1;fill-rule:nonzero;stroke:none" /><path
             d="m 546.5704,70.3317 c 0,-1.294 -1.046,-2.344 -2.343,-2.344 -1.293,0 -2.34,1.05 -2.34,2.344 0,1.293 1.047,2.34 2.34,2.34 1.297,0 2.343,-1.047 2.343,-2.34"
             id="path53370"
             style="fill:#e75325;fill-opacity:1;fill-rule:nonzero;stroke:none" /><path
             d="m 552.424,70.3317 c 0,-1.294 -1.048,-2.344 -2.342,-2.344 -1.293,0 -2.34,1.05 -2.34,2.344 0,1.293 1.047,2.34 2.34,2.34 1.294,0 2.342,-1.047 2.342,-2.34"
             id="path53374"
             style="fill:#e75325;fill-opacity:1;fill-rule:nonzero;stroke:none" /><path
             d="m 558.2766,70.3317 c 0,-1.294 -1.049,-2.344 -2.34,-2.344 -1.293,0 -2.344,1.05 -2.344,2.344 0,1.293 1.051,2.34 2.344,2.34 1.291,0 2.34,-1.047 2.34,-2.34"
             id="path53386"
             style="fill:#e75325;fill-opacity:1;fill-rule:nonzero;stroke:none" /><path
             d="m 564.129,70.3317 c 0,-1.294 -1.047,-2.344 -2.342,-2.344 -1.293,0 -2.34,1.05 -2.34,2.344 0,1.293 1.047,2.34 2.34,2.34 1.295,0 2.342,-1.047 2.342,-2.34"
             id="path53390"
             style="fill:#e75325;fill-opacity:1;fill-rule:nonzero;stroke:none" /></g><g
           id="g109960"><path
             d="m 417.8136,99.5934 c 0,-1.294 -1.047,-2.341 -2.343,-2.341 -1.293,0 -2.34,1.047 -2.34,2.341 0,1.294 1.047,2.341 2.34,2.341 1.296,0 2.343,-1.047 2.343,-2.341"
             id="path53126"
             style="fill:#1e9dd8;fill-opacity:1;fill-rule:nonzero;stroke:none" /><path
             d="m 417.8136,82.0373 c 0,-1.294 -1.047,-2.341 -2.343,-2.341 -1.293,0 -2.34,1.047 -2.34,2.341 0,1.294 1.047,2.341 2.34,2.341 1.296,0 2.343,-1.047 2.343,-2.341"
             id="path53138"
             style="fill:#1e9dd8;fill-opacity:1;fill-rule:nonzero;stroke:none" /><path
             d="m 435.3723,64.4781 c 0,-1.293 -1.047,-2.341 -2.342,-2.341 -1.293,0 -2.341,1.048 -2.341,2.341 0,1.293 1.048,2.34 2.341,2.34 1.295,0 2.342,-1.047 2.342,-2.34"
             id="path53158"
             style="fill:#1e9dd8;fill-opacity:1;fill-rule:nonzero;stroke:none" /><path
             d="m 447.0753,64.4781 c 0,-1.293 -1.045,-2.341 -2.339,-2.341 -1.296,0 -2.342,1.048 -2.342,2.341 0,1.293 1.046,2.34 2.342,2.34 1.294,0 2.339,-1.047 2.339,-2.34"
             id="path53170"
             style="fill:#1e9dd8;fill-opacity:1;fill-rule:nonzero;stroke:none" /><path
             d="m 458.7794,64.4781 c 0,-1.293 -1.047,-2.341 -2.339,-2.341 -1.293,0 -2.342,1.048 -2.342,2.341 0,1.293 1.049,2.34 2.342,2.34 1.292,0 2.339,-1.047 2.339,-2.34"
             id="path53194"
             style="fill:#1e9dd8;fill-opacity:1;fill-rule:nonzero;stroke:none" /><path
             d="m 470.4865,64.4781 c 0,-1.293 -1.049,-2.341 -2.34,-2.341 -1.292,0 -2.343,1.048 -2.343,2.341 0,1.293 1.051,2.34 2.343,2.34 1.291,0 2.34,-1.047 2.34,-2.34"
             id="path53206"
             style="fill:#1e9dd8;fill-opacity:1;fill-rule:nonzero;stroke:none" /><path
             d="m 476.338,64.4781 c 0,-1.293 -1.047,-2.341 -2.34,-2.341 -1.293,0 -2.34,1.048 -2.34,2.341 0,1.293 1.047,2.34 2.34,2.34 1.293,0 2.34,-1.047 2.34,-2.34"
             id="path53234"
             style="fill:#1e9dd8;fill-opacity:1;fill-rule:nonzero;stroke:none" /><path
             d="m 482.1925,64.4781 c 0,-1.293 -1.05,-2.341 -2.342,-2.341 -1.292,0 -2.34,1.048 -2.34,2.341 0,1.293 1.048,2.34 2.34,2.34 1.292,0 2.342,-1.047 2.342,-2.34"
             id="path53238"
             style="fill:#1e9dd8;fill-opacity:1;fill-rule:nonzero;stroke:none" /><path
             d="m 488.0432,64.4781 c 0,-1.293 -1.047,-2.341 -2.339,-2.341 -1.295,0 -2.342,1.048 -2.342,2.341 0,1.293 1.047,2.34 2.342,2.34 1.292,0 2.339,-1.047 2.339,-2.34"
             id="path53250"
             style="fill:#1e9dd8;fill-opacity:1;fill-rule:nonzero;stroke:none" /><path
             d="m 493.8976,64.4781 c 0,-1.293 -1.047,-2.341 -2.342,-2.341 -1.292,0 -2.339,1.048 -2.339,2.341 0,1.293 1.047,2.34 2.339,2.34 1.295,0 2.342,-1.047 2.342,-2.34"
             id="path53254"
             style="fill:#1e9dd8;fill-opacity:1;fill-rule:nonzero;stroke:none" /><path
             d="m 499.7501,64.4781 c 0,-1.293 -1.049,-2.341 -2.341,-2.341 -1.293,0 -2.344,1.048 -2.344,2.341 0,1.293 1.051,2.34 2.344,2.34 1.292,0 2.341,-1.047 2.341,-2.34"
             id="path53282"
             style="fill:#1e9dd8;fill-opacity:1;fill-rule:nonzero;stroke:none" /><path
             d="m 505.6017,64.4781 c 0,-1.293 -1.047,-2.341 -2.342,-2.341 -1.292,0 -2.339,1.048 -2.339,2.341 0,1.293 1.047,2.34 2.339,2.34 1.295,0 2.342,-1.047 2.342,-2.34"
             id="path53286"
             style="fill:#1e9dd8;fill-opacity:1;fill-rule:nonzero;stroke:none" /><path
             d="m 511.4561,64.4781 c 0,-1.293 -1.05,-2.341 -2.343,-2.341 -1.291,0 -2.343,1.048 -2.343,2.341 0,1.293 1.052,2.34 2.343,2.34 1.293,0 2.343,-1.047 2.343,-2.34"
             id="path53298"
             style="fill:#1e9dd8;fill-opacity:1;fill-rule:nonzero;stroke:none" /><path
             d="m 517.3067,64.4781 c 0,-1.293 -1.047,-2.341 -2.34,-2.341 -1.292,0 -2.342,1.048 -2.342,2.341 0,1.293 1.05,2.34 2.342,2.34 1.293,0 2.34,-1.047 2.34,-2.34"
             id="path53302"
             style="fill:#1e9dd8;fill-opacity:1;fill-rule:nonzero;stroke:none" /><path
             d="m 523.1603,64.4781 c 0,-1.293 -1.049,-2.341 -2.342,-2.341 -1.293,0 -2.34,1.048 -2.34,2.341 0,1.293 1.047,2.34 2.34,2.34 1.293,0 2.342,-1.047 2.342,-2.34"
             id="path53330"
             style="fill:#1e9dd8;fill-opacity:1;fill-rule:nonzero;stroke:none" /><path
             d="m 529.0139,64.4781 c 0,-1.293 -1.049,-2.341 -2.34,-2.341 -1.295,0 -2.345,1.048 -2.345,2.341 0,1.293 1.05,2.34 2.345,2.34 1.291,0 2.34,-1.047 2.34,-2.34"
             id="path53334"
             style="fill:#1e9dd8;fill-opacity:1;fill-rule:nonzero;stroke:none" /><path
             d="m 534.8654,64.4781 c 0,-1.293 -1.047,-2.341 -2.34,-2.341 -1.295,0 -2.342,1.048 -2.342,2.341 0,1.293 1.047,2.34 2.342,2.34 1.293,0 2.34,-1.047 2.34,-2.34"
             id="path53346"
             style="fill:#1e9dd8;fill-opacity:1;fill-rule:nonzero;stroke:none" /><path
             d="m 540.7198,64.4781 c 0,-1.293 -1.05,-2.341 -2.342,-2.341 -1.293,0 -2.345,1.048 -2.345,2.341 0,1.293 1.052,2.34 2.345,2.34 1.292,0 2.342,-1.047 2.342,-2.34"
             id="path53350"
             style="fill:#1e9dd8;fill-opacity:1;fill-rule:nonzero;stroke:none" /><path
             d="m 546.5704,64.4781 c 0,-1.293 -1.046,-2.341 -2.343,-2.341 -1.293,0 -2.34,1.048 -2.34,2.341 0,1.293 1.047,2.34 2.34,2.34 1.297,0 2.343,-1.047 2.343,-2.34"
             id="path53378"
             style="fill:#1e9dd8;fill-opacity:1;fill-rule:nonzero;stroke:none" /><path
             d="m 552.424,64.4781 c 0,-1.293 -1.048,-2.341 -2.342,-2.341 -1.293,0 -2.34,1.048 -2.34,2.341 0,1.293 1.047,2.34 2.34,2.34 1.294,0 2.342,-1.047 2.342,-2.34"
             id="path53382"
             style="fill:#1e9dd8;fill-opacity:1;fill-rule:nonzero;stroke:none" /><path
             d="m 558.2766,64.4781 c 0,-1.293 -1.049,-2.341 -2.34,-2.341 -1.293,0 -2.344,1.048 -2.344,2.341 0,1.293 1.051,2.34 2.344,2.34 1.291,0 2.34,-1.047 2.34,-2.34"
             id="path53394"
             style="fill:#1e9dd8;fill-opacity:1;fill-rule:nonzero;stroke:none" /><path
             d="m 564.129,64.4781 c 0,-1.293 -1.047,-2.341 -2.342,-2.341 -1.293,0 -2.34,1.048 -2.34,2.341 0,1.293 1.047,2.34 2.34,2.34 1.295,0 2.342,-1.047 2.342,-2.34"
             id="path53398"
             style="fill:#1e9dd8;fill-opacity:1;fill-rule:nonzero;stroke:none" /></g></g><g
         id="g109899"><path
           d="m 458.3692,90.506 c 0,-0.8 -0.102,-1.537 -0.304,-2.21 -0.201,-0.674 -0.488,-1.282 -0.856,-1.82 -0.366,-0.536 -0.809,-1.008 -1.325,-1.414 -0.52,-0.404 -1.1,-0.747 -1.747,-1.018 -0.651,-0.277 -1.345,-0.483 -2.083,-0.623 -0.741,-0.136 -1.591,-0.206 -2.546,-0.206 l -6.641,0 c -0.3,0 -0.585,0.103 -0.854,0.307 -0.269,0.202 -0.402,0.558 -0.402,1.071 l 0,22.672 c 0,0.513 0.133,0.867 0.402,1.068 0.269,0.206 0.554,0.307 0.854,0.307 l 5.776,0 c 1.521,0 2.763,-0.145 3.733,-0.432 0.97,-0.288 1.778,-0.708 2.429,-1.259 0.647,-0.549 1.135,-1.225 1.462,-2.023 0.327,-0.799 0.491,-1.702 0.491,-2.709 0,-0.606 -0.073,-1.179 -0.217,-1.732 -0.144,-0.55 -0.356,-1.057 -0.638,-1.524 -0.283,-0.462 -0.636,-0.879 -1.059,-1.246 -0.426,-0.365 -0.915,-0.668 -1.467,-0.903 0.696,-0.131 1.343,-0.372 1.947,-0.715 0.604,-0.35 1.13,-0.789 1.58,-1.328 0.454,-0.537 0.811,-1.166 1.073,-1.887 0.261,-0.72 0.392,-1.511 0.392,-2.376 m -5.087,11.376 c 0,0.615 -0.086,1.169 -0.256,1.669 -0.17,0.497 -0.438,0.92 -0.801,1.267 -0.368,0.347 -0.846,0.613 -1.434,0.795 -0.59,0.186 -1.366,0.276 -2.334,0.276 l -3.487,0 0,-8.231 3.842,0 c 0.877,0 1.58,0.113 2.117,0.343 0.534,0.229 0.98,0.538 1.333,0.924 0.352,0.387 0.61,0.837 0.774,1.355 0.163,0.519 0.246,1.051 0.246,1.602 m 1.533,-11.575 c 0,0.762 -0.123,1.43 -0.365,2.007 -0.243,0.575 -0.596,1.059 -1.059,1.453 -0.464,0.392 -1.045,0.691 -1.744,0.895 -0.701,0.2 -1.579,0.305 -2.637,0.305 l -4.04,0 0,-8.961 4.9,0 c 0.772,0 1.444,0.091 2.022,0.276 0.574,0.181 1.081,0.454 1.52,0.814 0.436,0.362 0.779,0.81 1.029,1.346 0.248,0.539 0.374,1.16 0.374,1.865"
           id="path53402"
           style="fill:#054663;fill-opacity:1;fill-rule:nonzero;stroke:none" /><path
           d="m 477.838,93.317 c 0,-0.515 -0.127,-0.876 -0.383,-1.094 -0.256,-0.213 -0.548,-0.32 -0.878,-0.32 l -11.646,0 c 0,-0.986 0.098,-1.87 0.294,-2.655 0.2,-0.786 0.529,-1.463 0.991,-2.023 0.46,-0.565 1.059,-0.995 1.794,-1.298 0.737,-0.298 1.64,-0.451 2.704,-0.451 0.844,0 1.594,0.069 2.25,0.206 0.66,0.136 1.23,0.29 1.71,0.462 0.48,0.17 0.874,0.324 1.184,0.462 0.31,0.138 0.544,0.207 0.703,0.207 0.091,0 0.174,-0.025 0.246,-0.069 0.07,-0.046 0.128,-0.116 0.167,-0.206 0.04,-0.09 0.069,-0.221 0.089,-0.384 0.019,-0.164 0.029,-0.365 0.029,-0.599 0,-0.172 -0.006,-0.32 -0.018,-0.441 -0.014,-0.126 -0.031,-0.235 -0.049,-0.334 -0.022,-0.1 -0.056,-0.187 -0.1,-0.267 -0.044,-0.08 -0.104,-0.152 -0.176,-0.227 -0.072,-0.072 -0.286,-0.189 -0.639,-0.351 -0.353,-0.165 -0.812,-0.325 -1.374,-0.484 -0.564,-0.157 -1.216,-0.299 -1.958,-0.421 -0.738,-0.124 -1.529,-0.187 -2.368,-0.187 -1.451,0 -2.725,0.202 -3.82,0.608 -1.094,0.406 -2.013,1.009 -2.759,1.808 -0.749,0.8 -1.311,1.801 -1.692,3.007 -0.379,1.206 -0.567,2.607 -0.567,4.204 0,1.519 0.196,2.885 0.589,4.096 0.39,1.213 0.959,2.241 1.701,3.086 0.739,0.844 1.634,1.494 2.679,1.946 1.047,0.449 2.221,0.676 3.517,0.676 1.387,0 2.572,-0.222 3.548,-0.666 0.974,-0.448 1.778,-1.046 2.407,-1.799 0.628,-0.756 1.09,-1.638 1.384,-2.652 0.297,-1.016 0.441,-2.101 0.441,-3.253 l 0,-0.587 z m -3.261,0.961 c 0.038,1.702 -0.339,3.038 -1.137,4.008 -0.797,0.969 -1.978,1.455 -3.545,1.455 -0.806,0 -1.511,-0.151 -2.118,-0.454 -0.605,-0.299 -1.112,-0.7 -1.521,-1.199 -0.412,-0.496 -0.728,-1.076 -0.95,-1.737 -0.225,-0.662 -0.35,-1.353 -0.375,-2.073 l 9.646,0 z"
           id="path53406"
           style="fill:#054663;fill-opacity:1;fill-rule:nonzero;stroke:none" /><path
           d="m 497.0598,83.7072 c 0,-0.105 -0.026,-0.194 -0.078,-0.263 -0.052,-0.075 -0.136,-0.139 -0.253,-0.191 -0.117,-0.051 -0.285,-0.09 -0.493,-0.116 -0.207,-0.026 -0.471,-0.038 -0.784,-0.038 -0.33,0 -0.596,0.012 -0.804,0.038 -0.212,0.026 -0.376,0.065 -0.494,0.116 -0.117,0.052 -0.203,0.116 -0.256,0.191 -0.052,0.069 -0.078,0.158 -0.078,0.263 l 0,10.353 c 0,1.008 -0.078,1.82 -0.236,2.438 -0.158,0.616 -0.386,1.146 -0.688,1.59 -0.301,0.446 -0.691,0.789 -1.168,1.023 -0.478,0.235 -1.031,0.355 -1.662,0.355 -0.811,0 -1.622,-0.29 -2.435,-0.865 -0.812,-0.576 -1.662,-1.424 -2.554,-2.536 l 0,-12.358 c 0,-0.105 -0.026,-0.194 -0.078,-0.263 -0.051,-0.075 -0.138,-0.139 -0.255,-0.191 -0.119,-0.051 -0.283,-0.09 -0.492,-0.116 -0.211,-0.026 -0.477,-0.038 -0.803,-0.038 -0.316,0 -0.579,0.012 -0.787,0.038 -0.213,0.026 -0.378,0.065 -0.501,0.116 -0.124,0.052 -0.209,0.116 -0.258,0.191 -0.044,0.069 -0.067,0.158 -0.067,0.263 l 0,17.683 c 0,0.106 0.02,0.193 0.057,0.266 0.041,0.07 0.12,0.136 0.236,0.195 0.12,0.061 0.27,0.098 0.454,0.119 0.182,0.018 0.423,0.029 0.727,0.029 0.287,0 0.527,-0.011 0.718,-0.029 0.189,-0.021 0.337,-0.058 0.441,-0.119 0.105,-0.059 0.179,-0.125 0.225,-0.195 0.045,-0.073 0.068,-0.16 0.068,-0.266 l 0,-2.339 c 0.994,1.116 1.989,1.929 2.977,2.447 0.991,0.518 1.989,0.775 2.997,0.775 1.179,0 2.172,-0.198 2.974,-0.597 0.808,-0.4 1.459,-0.933 1.958,-1.604 0.497,-0.667 0.854,-1.45 1.069,-2.347 0.215,-0.898 0.323,-1.973 0.323,-3.23 l 0,-10.788 z"
           id="path53410"
           style="fill:#054663;fill-opacity:1;fill-rule:nonzero;stroke:none" /><path
           d="m 517.3185,93.317 c 0,-0.515 -0.129,-0.876 -0.387,-1.094 -0.256,-0.213 -0.551,-0.32 -0.88,-0.32 l -11.64,0 c 0,-0.986 0.094,-1.87 0.293,-2.655 0.198,-0.786 0.526,-1.463 0.987,-2.023 0.46,-0.565 1.06,-0.995 1.796,-1.298 0.738,-0.298 1.639,-0.451 2.706,-0.451 0.841,0 1.594,0.069 2.25,0.206 0.657,0.136 1.229,0.29 1.708,0.462 0.479,0.17 0.875,0.324 1.184,0.462 0.313,0.138 0.543,0.207 0.703,0.207 0.091,0 0.172,-0.025 0.245,-0.069 0.072,-0.046 0.129,-0.116 0.168,-0.206 0.041,-0.09 0.067,-0.221 0.089,-0.384 0.019,-0.164 0.029,-0.365 0.029,-0.599 0,-0.172 -0.005,-0.32 -0.021,-0.441 -0.01,-0.126 -0.03,-0.235 -0.047,-0.334 -0.019,-0.1 -0.051,-0.187 -0.099,-0.267 -0.047,-0.08 -0.105,-0.152 -0.178,-0.227 -0.068,-0.072 -0.284,-0.189 -0.638,-0.351 -0.352,-0.165 -0.811,-0.325 -1.376,-0.484 -0.56,-0.157 -1.213,-0.299 -1.953,-0.421 -0.739,-0.124 -1.53,-0.187 -2.369,-0.187 -1.453,0 -2.727,0.202 -3.818,0.608 -1.096,0.406 -2.017,1.009 -2.763,1.808 -0.747,0.8 -1.309,1.801 -1.689,3.007 -0.38,1.206 -0.57,2.607 -0.57,4.204 0,1.519 0.196,2.885 0.589,4.096 0.394,1.213 0.961,2.241 1.7,3.086 0.742,0.844 1.634,1.494 2.682,1.946 1.05,0.449 2.218,0.676 3.518,0.676 1.385,0 2.568,-0.222 3.545,-0.666 0.976,-0.448 1.779,-1.046 2.41,-1.799 0.627,-0.756 1.087,-1.638 1.384,-2.652 0.292,-1.016 0.442,-2.101 0.442,-3.253 l 0,-0.587 z m -3.265,0.961 c 0.042,1.702 -0.337,3.038 -1.135,4.008 -0.798,0.969 -1.979,1.455 -3.548,1.455 -0.802,0 -1.507,-0.151 -2.117,-0.454 -0.604,-0.299 -1.114,-0.7 -1.52,-1.199 -0.41,-0.496 -0.727,-1.076 -0.948,-1.737 -0.226,-0.662 -0.351,-1.353 -0.374,-2.073 l 9.642,0 z"
           id="path53414"
           style="fill:#054663;fill-opacity:1;fill-rule:nonzero;stroke:none" /><path
           d="m 524.9269,83.7072 c 0,-0.105 -0.025,-0.194 -0.078,-0.263 -0.051,-0.075 -0.137,-0.139 -0.256,-0.191 -0.118,-0.051 -0.282,-0.09 -0.489,-0.116 -0.212,-0.026 -0.48,-0.038 -0.806,-0.038 -0.314,0 -0.575,0.012 -0.787,0.038 -0.208,0.026 -0.374,0.065 -0.499,0.116 -0.125,0.052 -0.209,0.116 -0.257,0.191 -0.045,0.069 -0.068,0.158 -0.068,0.263 l 0,26.249 c 0,0.103 0.023,0.196 0.068,0.275 0.048,0.078 0.132,0.142 0.257,0.193 0.125,0.057 0.291,0.094 0.499,0.122 0.212,0.026 0.473,0.039 0.787,0.039 0.326,0 0.594,-0.013 0.806,-0.039 0.207,-0.028 0.371,-0.065 0.489,-0.122 0.119,-0.051 0.205,-0.115 0.256,-0.193 0.053,-0.079 0.078,-0.172 0.078,-0.275 l 0,-26.249 z"
           id="path53418"
           style="fill:#054663;fill-opacity:1;fill-rule:nonzero;stroke:none" /><path
           d="m 544.7589,83.7072 c 0,-0.105 -0.023,-0.194 -0.067,-0.263 -0.048,-0.075 -0.128,-0.139 -0.249,-0.191 -0.116,-0.051 -0.271,-0.09 -0.461,-0.116 -0.187,-0.026 -0.421,-0.038 -0.697,-0.038 -0.3,0 -0.545,0.012 -0.735,0.038 -0.192,0.026 -0.341,0.065 -0.452,0.116 -0.113,0.052 -0.188,0.116 -0.229,0.191 -0.038,0.069 -0.058,0.158 -0.058,0.263 l 0,2.339 c -1.005,-1.115 -2.003,-1.926 -2.985,-2.436 -0.982,-0.511 -1.978,-0.767 -2.987,-0.767 -1.179,0 -2.169,0.194 -2.976,0.589 -0.805,0.394 -1.457,0.928 -1.955,1.602 -0.498,0.674 -0.854,1.459 -1.068,2.358 -0.218,0.895 -0.325,1.985 -0.325,3.271 l 0,10.727 c 0,0.106 0.021,0.193 0.068,0.266 0.044,0.07 0.134,0.136 0.264,0.195 0.133,0.061 0.303,0.098 0.512,0.119 0.207,0.018 0.47,0.029 0.784,0.029 0.314,0 0.579,-0.011 0.787,-0.029 0.207,-0.021 0.374,-0.058 0.5,-0.119 0.125,-0.059 0.213,-0.125 0.266,-0.195 0.052,-0.073 0.079,-0.16 0.079,-0.266 l 0,-10.295 c 0,-1.034 0.075,-1.864 0.225,-2.486 0.151,-0.622 0.381,-1.152 0.689,-1.59 0.308,-0.441 0.696,-0.78 1.169,-1.024 0.469,-0.241 1.021,-0.362 1.648,-0.362 0.814,0 1.623,0.286 2.428,0.866 0.804,0.574 1.66,1.42 2.565,2.533 l 0,12.358 c 0,0.106 0.023,0.193 0.067,0.266 0.047,0.07 0.133,0.136 0.265,0.195 0.13,0.061 0.299,0.098 0.5,0.119 0.203,0.018 0.472,0.029 0.799,0.029 0.313,0 0.572,-0.011 0.784,-0.029 0.209,-0.021 0.373,-0.058 0.492,-0.119 0.118,-0.059 0.206,-0.125 0.265,-0.195 0.059,-0.073 0.088,-0.16 0.088,-0.266 l 0,-17.683 z"
           id="path53422"
           style="fill:#054663;fill-opacity:1;fill-rule:nonzero;stroke:none" /><path
           d="m 563.9649,84.0802 c 0.105,-0.184 0.156,-0.338 0.156,-0.461 0,-0.123 -0.063,-0.225 -0.185,-0.306 -0.126,-0.075 -0.316,-0.133 -0.571,-0.167 -0.256,-0.032 -0.586,-0.047 -0.993,-0.047 -0.394,0 -0.705,0.009 -0.934,0.029 -0.23,0.018 -0.411,0.052 -0.551,0.099 -0.137,0.043 -0.24,0.103 -0.313,0.177 -0.072,0.07 -0.132,0.155 -0.187,0.246 l -4.243,7.013 -4.225,-7.013 c -0.052,-0.091 -0.116,-0.176 -0.184,-0.246 -0.074,-0.074 -0.179,-0.134 -0.317,-0.177 -0.137,-0.047 -0.315,-0.081 -0.539,-0.099 -0.223,-0.02 -0.519,-0.029 -0.884,-0.029 -0.38,0 -0.69,0.015 -0.934,0.047 -0.24,0.034 -0.42,0.092 -0.53,0.167 -0.112,0.081 -0.165,0.183 -0.157,0.306 0.006,0.123 0.068,0.277 0.185,0.461 l 5.502,8.626 -5.207,8.311 c -0.105,0.183 -0.16,0.335 -0.164,0.462 -0.008,0.125 0.05,0.229 0.173,0.314 0.127,0.085 0.317,0.139 0.573,0.168 0.254,0.026 0.591,0.039 1.012,0.039 0.376,0 0.684,-0.012 0.913,-0.03 0.229,-0.021 0.407,-0.049 0.541,-0.088 0.129,-0.041 0.229,-0.093 0.293,-0.158 0.065,-0.065 0.125,-0.143 0.177,-0.233 l 4.029,-6.583 4.087,6.583 c 0.051,0.077 0.11,0.148 0.174,0.215 0.065,0.063 0.157,0.119 0.266,0.167 0.112,0.045 0.268,0.076 0.473,0.097 0.203,0.018 0.48,0.03 0.835,0.03 0.379,0 0.689,-0.013 0.932,-0.039 0.243,-0.029 0.421,-0.077 0.541,-0.151 0.117,-0.069 0.169,-0.171 0.156,-0.304 -0.013,-0.129 -0.078,-0.294 -0.196,-0.489 l -5.168,-8.215 5.464,-8.722 z"
           id="path53426"
           style="fill:#054663;fill-opacity:1;fill-rule:nonzero;stroke:none" /></g></g></g></svg>